{
	"asset":{
		"generator":"Khronos glTF Blender I/O v3.6.27",
		"version":"2.0"
	},
	"extensionsUsed":[
		"KHR_materials_specular",
		"KHR_materials_ior"
	],
	"scene":0,
	"scenes":[
		{
			"name":"Scene",
			"nodes":[
				0,
				1,
				2
			]
		}
	],
	"nodes":[
		{
			"mesh":0,
			"name":"pCube1",
			"rotation":[
				0.7071067690849304,
				0,
				0,
				0.7071068286895752
			],
			"scale":[
				0.04617011547088623,
				0.04617011547088623,
				0.04617011547088623
			],
			"translation":[
				0,
				0.09859337657690048,
				0
			]
		},
		{
			"mesh":1,
			"name":"pCube8",
			"rotation":[
				0.7071067690849304,
				0,
				0,
				0.7071068286895752
			],
			"scale":[
				0.04617011547088623,
				0.04617011547088623,
				0.04617011547088623
			],
			"translation":[
				-0.8566727638244629,
				0.09859337657690048,
				0
			]
		},
		{
			"mesh":2,
			"name":"polySurface1",
			"rotation":[
				0.7071067690849304,
				0,
				0,
				0.7071068286895752
			],
			"scale":[
				0.04617011547088623,
				0.04617011547088623,
				0.04617011547088623
			],
			"translation":[
				0,
				0.09859337657690048,
				0
			]
		}
	],
	"materials":[
		{
			"doubleSided":true,
			"extensions":{
				"KHR_materials_specular":{
					"specularColorFactor":[
						0,
						0,
						0
					]
				},
				"KHR_materials_ior":{
					"ior":1.4500000476837158
				}
			},
			"name":"body",
			"pbrMetallicRoughness":{
				"baseColorTexture":{
					"index":0
				},
				"metallicRoughnessTexture":{
					"index":1
				}
			}
		},
		{
			"doubleSided":true,
			"extensions":{
				"KHR_materials_specular":{
					"specularColorFactor":[
						0,
						0,
						0
					]
				},
				"KHR_materials_ior":{
					"ior":1.4500000476837158
				}
			},
			"name":"house",
			"pbrMetallicRoughness":{
				"baseColorTexture":{
					"index":2
				},
				"metallicRoughnessTexture":{
					"index":3
				}
			}
		},
		{
			"doubleSided":true,
			"extensions":{
				"KHR_materials_specular":{
					"specularColorFactor":[
						0,
						0,
						0
					]
				},
				"KHR_materials_ior":{
					"ior":1.4500000476837158
				}
			},
			"name":"oth",
			"pbrMetallicRoughness":{
				"baseColorTexture":{
					"index":4
				},
				"metallicRoughnessTexture":{
					"index":5
				}
			}
		}
	],
	"meshes":[
		{
			"name":"Mesh",
			"primitives":[
				{
					"attributes":{
						"POSITION":0,
						"NORMAL":1,
						"TEXCOORD_0":2
					},
					"indices":3,
					"material":0
				}
			]
		},
		{
			"name":"Mesh.001",
			"primitives":[
				{
					"attributes":{
						"POSITION":4,
						"NORMAL":5,
						"TEXCOORD_0":6
					},
					"indices":7,
					"material":1
				}
			]
		},
		{
			"name":"Mesh.002",
			"primitives":[
				{
					"attributes":{
						"POSITION":8,
						"NORMAL":9,
						"TEXCOORD_0":10
					},
					"indices":11,
					"material":2
				}
			]
		}
	],
	"textures":[
		{
			"sampler":0,
			"source":0
		},
		{
			"sampler":0,
			"source":1
		},
		{
			"sampler":0,
			"source":2
		},
		{
			"sampler":0,
			"source":3
		},
		{
			"sampler":0,
			"source":4
		},
		{
			"sampler":0,
			"source":5
		}
	],
	"images":[
		{
			"bufferView":4,
			"mimeType":"image/png",
			"name":"body_Color"
		},
		{
			"bufferView":5,
			"mimeType":"image/png",
			"name":"body_ORM"
		},
		{
			"bufferView":10,
			"mimeType":"image/png",
			"name":"house_Color"
		},
		{
			"bufferView":11,
			"mimeType":"image/png",
			"name":"house_ORM"
		},
		{
			"bufferView":16,
			"mimeType":"image/png",
			"name":"oth_Color"
		},
		{
			"bufferView":17,
			"mimeType":"image/png",
			"name":"oth_ORM"
		}
	],
	"accessors":[
		{
			"bufferView":0,
			"componentType":5126,
			"count":5454,
			"max":[
				1.9833303689956665,
				6.506002902984619,
				1.668324589729309
			],
			"min":[
				-1.9833303689956665,
				-4.345316410064697,
				-1.7298152446746826
			],
			"type":"VEC3"
		},
		{
			"bufferView":1,
			"componentType":5126,
			"count":5454,
			"type":"VEC3"
		},
		{
			"bufferView":2,
			"componentType":5126,
			"count":5454,
			"type":"VEC2"
		},
		{
			"bufferView":3,
			"componentType":5123,
			"count":29250,
			"type":"SCALAR"
		},
		{
			"bufferView":6,
			"componentType":5126,
			"count":790,
			"max":[
				26.70168113708496,
				7.31988000869751,
				2.126945734024048
			],
			"min":[
				20.681875228881836,
				-5.266453266143799,
				-2.783053398132324
			],
			"type":"VEC3"
		},
		{
			"bufferView":7,
			"componentType":5126,
			"count":790,
			"type":"VEC3"
		},
		{
			"bufferView":8,
			"componentType":5126,
			"count":790,
			"type":"VEC2"
		},
		{
			"bufferView":9,
			"componentType":5123,
			"count":2520,
			"type":"SCALAR"
		},
		{
			"bufferView":12,
			"componentType":5126,
			"count":12562,
			"max":[
				1.962587594985962,
				4.693257808685303,
				2.0766777992248535
			],
			"min":[
				-1.962587594985962,
				-6.184110641479492,
				-1.8005669116973877
			],
			"type":"VEC3"
		},
		{
			"bufferView":13,
			"componentType":5126,
			"count":12562,
			"type":"VEC3"
		},
		{
			"bufferView":14,
			"componentType":5126,
			"count":12562,
			"type":"VEC2"
		},
		{
			"bufferView":15,
			"componentType":5123,
			"count":56130,
			"type":"SCALAR"
		}
	],
	"bufferViews":[
		{
			"buffer":0,
			"byteLength":65448,
			"byteOffset":0,
			"target":34962
		},
		{
			"buffer":0,
			"byteLength":65448,
			"byteOffset":65448,
			"target":34962
		},
		{
			"buffer":0,
			"byteLength":43632,
			"byteOffset":130896,
			"target":34962
		},
		{
			"buffer":0,
			"byteLength":58500,
			"byteOffset":174528,
			"target":34963
		},
		{
			"buffer":0,
			"byteLength":1233468,
			"byteOffset":233028
		},
		{
			"buffer":0,
			"byteLength":48247,
			"byteOffset":1466496
		},
		{
			"buffer":0,
			"byteLength":9480,
			"byteOffset":1514744,
			"target":34962
		},
		{
			"buffer":0,
			"byteLength":9480,
			"byteOffset":1524224,
			"target":34962
		},
		{
			"buffer":0,
			"byteLength":6320,
			"byteOffset":1533704,
			"target":34962
		},
		{
			"buffer":0,
			"byteLength":5040,
			"byteOffset":1540024,
			"target":34963
		},
		{
			"buffer":0,
			"byteLength":45357,
			"byteOffset":1545064
		},
		{
			"buffer":0,
			"byteLength":5356,
			"byteOffset":1590424
		},
		{
			"buffer":0,
			"byteLength":150744,
			"byteOffset":1595780,
			"target":34962
		},
		{
			"buffer":0,
			"byteLength":150744,
			"byteOffset":1746524,
			"target":34962
		},
		{
			"buffer":0,
			"byteLength":100496,
			"byteOffset":1897268,
			"target":34962
		},
		{
			"buffer":0,
			"byteLength":112260,
			"byteOffset":1997764,
			"target":34963
		},
		{
			"buffer":0,
			"byteLength":319915,
			"byteOffset":2110024
		},
		{
			"buffer":0,
			"byteLength":628620,
			"byteOffset":2429940
		}
	],
	"samplers":[
		{
			"magFilter":9729,
			"minFilter":9987
		}
	],
	"buffers":[
		{
			"byteLength":3058560,
			"uri":"data:application/octet-stream;base64,"
		}
	]
}
